Coordinates
version=1
nRows=16
nColumns=38
inDegrees=no

Units are S.I. units (second, meters, Newtons, ...)
If the header above contains a line with 'inDegrees', this indicates whether rotational values are in degrees (yes) or radians (no).

endheader
time	pelvis_tilt	pelvis_list	pelvis_rotation	pelvis_tx	pelvis_ty	pelvis_tz	hip_flexion_r	hip_adduction_r	hip_rotation_r	knee_angle_r	ankle_angle_r	subtalar_angle_r	mtp_angle_r	hip_flexion_l	hip_adduction_l	hip_rotation_l	knee_angle_l	ankle_angle_l	subtalar_angle_l	mtp_angle_l	lumbar_extension	lumbar_bending	lumbar_rotation	arm_flex_r	arm_add_r	arm_rot_r	elbow_flex_r	pro_sup_r	wrist_flex_r	wrist_dev_r	arm_flex_l	arm_add_l	arm_rot_l	elbow_flex_l	pro_sup_l	wrist_flex_l	wrist_dev_l
1.6	-0.117031	0.0113038	0.0722868	1.01145	1.0369	-0.3519	-0.0548014	0.0860783	0.0691443	-0.975866	-0.198744	0.0188018	-3.29375e-06	0.546798	0.115574	-0.110951	-0.35043	0.108955	0.0810289	-2.54376e-06	-0.100973	-0.0181491	0.109663	-0.320245	-0.337318	0.00303151	2.11401	2.00249	0.0750904	0.0825441	-0.761801	-0.148062	-0.270159	2.13333	1.85785	0.1	0.0919909
1.61	-0.120577	0.0131967	0.0762864	1.01041	1.02969	-0.352075	-0.0163561	0.0828706	0.0651184	-1.07104	-0.174908	0.0188018	-3.29375e-06	0.5568	0.11994	-0.106477	-0.398132	0.108484	0.0810289	-2.54376e-06	-0.099168	-0.0230099	0.0995852	-0.336991	-0.331608	-0.0079524	2.06832	1.99492	0.0750904	0.0825441	-0.741748	-0.151057	-0.267209	2.12503	1.85535	0.1	0.0919909
1.62	-0.124137	0.016392	0.0802559	1.00907	1.02179	-0.352301	0.0245346	0.0756206	0.0569616	-1.16478	-0.151225	0.0188018	-3.29375e-06	0.56955	0.125596	-0.102268	-0.458056	0.113295	0.0810289	-2.54376e-06	-0.0980633	-0.0292287	0.0882551	-0.352447	-0.325165	-0.0198498	2.01707	1.99052	0.0750904	0.0825441	-0.717965	-0.155437	-0.262231	2.11141	1.85119	0.1	0.0919909
1.63	-0.127379	0.0207786	0.0837961	1.00746	1.01357	-0.352533	0.0673643	0.0645723	0.0462378	-1.25538	-0.127594	0.0188018	-3.29375e-06	0.583569	0.13253	-0.0980504	-0.526662	0.125679	0.0810289	-2.54376e-06	-0.0979177	-0.0366686	0.0761194	-0.366154	-0.318168	-0.0321746	1.96067	1.99013	0.0750904	0.0825441	-0.690102	-0.160934	-0.25513	2.09157	1.84559	0.1	0.0919909
1.64	-0.130063	0.0261861	0.0864037	1.00563	1.0055	-0.35272	0.111733	0.0504141	0.034948	-1.34121	-0.1038	0.0188018	-3.29375e-06	0.596933	0.140473	-0.0938195	-0.59956	0.146995	0.0810289	-2.54376e-06	-0.0988952	-0.0450836	0.0637571	-0.377918	-0.310826	-0.0445045	1.89991	1.99413	0.0750904	0.0825441	-0.657988	-0.167238	-0.245824	2.06507	1.83906	0.1	0.0919909
1.65	-0.132043	0.0323756	0.087558	1.00357	0.99797	-0.352828	0.157328	0.0341958	0.025203	-1.42082	-0.0797022	0.0188018	-3.29375e-06	0.607434	0.148943	-0.0898186	-0.671813	0.177188	0.0810289	-2.54376e-06	-0.101025	-0.0541289	0.0517863	-0.387861	-0.303412	-0.0564563	1.83617	2.00222	0.0750904	0.0825441	-0.621802	-0.173988	-0.23435	2.03214	1.83234	0.1	0.0919909
1.66	-0.133288	0.0390566	0.0868157	1.0013	0.991218	-0.35285	0.203879	0.0171777	0.0188586	-1.49283	-0.0553239	0.0188018	-3.29375e-06	0.612857	0.157357	-0.0863921	-0.738475	0.214753	0.0810289	-2.54376e-06	-0.104197	-0.06339	0.040721	-0.396419	-0.296286	-0.067658	1.77143	2.01332	0.0750904	0.0825441	-0.582223	-0.180765	-0.220992	1.99397	1.8263	0.1	0.0919909
1.67	-0.133872	0.0459545	0.0839104	0.998855	0.985443	-0.352802	0.251132	0.000647382	0.0171794	-1.55603	-0.0308614	0.0188018	-3.29375e-06	0.611321	0.165146	-0.083808	-0.795193	0.257103	0.0810289	-2.54376e-06	-0.108158	-0.0724023	0.0308244	-0.404272	-0.289876	-0.0777374	1.70826	2.02556	0.0750904	0.0825441	-0.540507	-0.187097	-0.206375	1.95282	1.82169	0.1	0.0919909
1.68	-0.133938	0.0527311	0.0788329	0.9963	0.980887	-0.352694	0.298844	-0.0142847	0.0206174	-1.60934	-0.00663832	0.0188018	-3.29375e-06	0.601578	0.171855	-0.0821518	-0.838696	0.301084	0.0810289	-2.54376e-06	-0.112504	-0.0807147	0.0220193	-0.412251	-0.284643	-0.0863437	1.64962	2.03649	0.0750904	0.0825441	-0.498447	-0.192483	-0.191478	1.91191	1.81895	0.1	0.0919909
1.69	-0.133714	0.0590088	0.0718529	0.993747	0.977791	-0.352542	0.346731	-0.0267888	0.0287596	-1.65188	0.0169482	0.0188018	-3.29375e-06	0.583119	0.17715	-0.0812975	-0.867029	0.343427	0.0810289	-2.54376e-06	-0.116733	-0.0878763	0.013903	-0.421218	-0.281021	-0.0932006	1.59858	2.04344	0.0750904	0.0825441	-0.458189	-0.196445	-0.177516	1.87509	1.818	0.1	0.0919909
1.7	-0.133443	0.0643719	0.0634589	0.991322	0.976294	-0.352372	0.394453	-0.0363502	0.0404382	-1.68298	0.039484	0.0188018	-3.29375e-06	0.556163	0.180786	-0.0809499	-0.879546	0.381055	0.0810289	-2.54376e-06	-0.120274	-0.0934216	0.00586673	-0.431971	-0.279351	-0.098187	1.5579	2.04406	0.0750904	0.0825441	-0.421925	-0.198599	-0.165711	1.84622	1.81833	0.1	0.0919909
1.71	-0.133462	0.0683851	0.0542436	0.989128	0.976407	-0.352214	0.441575	-0.0427509	0.0539697	-1.70221	0.060592	0.0188018	-3.29375e-06	0.521518	0.182555	-0.0807336	-0.876745	0.411261	0.0810289	-2.54376e-06	-0.122574	-0.0968707	-0.00270004	-0.445163	-0.279809	-0.101427	1.52965	2.03693	0.0750904	0.0825441	-0.391529	-0.198736	-0.156983	1.82854	1.81903	0.1	0.0919909
1.72	-0.13409	0.0706236	0.044785	0.987248	0.978049	-0.352088	0.487575	-0.0460265	0.0674493	-1.70936	0.0799714	0.0188018	-3.29375e-06	0.480421	0.182272	-0.0803061	-0.860018	0.431789	0.0810289	-2.54376e-06	-0.123146	-0.097775	-0.0122141	-0.46125	-0.282346	-0.103344	1.51488	2.02204	0.0750904	0.0825441	-0.36824	-0.196882	-0.151698	1.82409	1.81904	0.1	0.0919909
1.73	-0.135587	0.0707258	0.0355437	0.985744	0.981077	-0.352004	0.531838	-0.046411	0.0790347	-1.70445	0.0974166	0.0188018	-3.29375e-06	0.434353	0.179776	-0.0794903	-0.831368	0.440855	0.0810289	-2.54376e-06	-0.121637	-0.0957862	-0.0227723	-0.480456	-0.286656	-0.104658	1.51346	2.0009	0.0750904	0.0825441	-0.352476	-0.193322	-0.149563	1.83336	1.81748	0.1	0.0919909
1.74	-0.138142	0.0684557	0.0268059	0.98465	0.985309	-0.351962	0.573679	-0.0442645	0.0871685	-1.68768	0.11281	0.0188018	-3.29375e-06	0.384869	0.174933	-0.0783835	-0.793155	0.437165	0.0810289	-2.54376e-06	-0.117897	-0.0907072	-0.0341304	-0.502761	-0.292186	-0.106288	1.52416	1.9762	0.0750904	0.0825441	-0.343839	-0.188566	-0.149708	1.85535	1.81388	0.1	0.0919909
1.75	-0.14177	0.0637365	0.0186903	0.983986	0.990557	-0.351948	0.612378	-0.0399937	0.0907381	-1.65935	0.126102	0.0188018	-3.29375e-06	0.33349	0.167646	-0.0774052	-0.747872	0.419949	0.0810289	-2.54376e-06	-0.111975	-0.0825249	-0.04577	-0.527914	-0.298214	-0.109192	1.54485	1.95092	0.0750904	0.0825441	-0.341294	-0.183273	-0.150925	1.88791	1.80842	0.1	0.0919909
